<svg xmlns="http://www.w3.org/2000/svg" viewBox="0 0 512 512">
	<path d="M259.2,147.1c-20.2,0-51.5-23-84.5-22.2c-43.5,0.6-83.4,25.2-105.8,64.3c-45.2,78.4-11.6,194.2,32.4,257.9
	c21.6,31,47.1,65.9,80.9,64.8c32.4-1.4,44.6-21.1,83.9-21.1c39.1,0,50.1,21.1,84.5,20.2c34.9-0.6,57.1-31.6,78.4-62.9
	c24.7-36,34.9-70.9,35.5-72.9c-0.8-0.3-67.9-26-68.7-103.6c-0.6-64.8,52.9-95.9,55.4-97.2c-30.5-44.6-77.3-49.6-93.6-50.7
	C314.9,120.5,279.2,147.1,259.2,147.1z M331.3,81.7c18-21.6,29.9-51.8,26.6-81.7c-25.8,1.1-56.8,17.2-75.4,38.8
	c-16.6,19.1-31,49.9-27.2,79.2C283.9,120.2,313.3,103.3,331.3,81.7" />
</svg>
