<svg xmlns="http://www.w3.org/2000/svg" viewBox="0 0 448 512">
	<path d="M202,277.7c-0.1,3.2,1.1,6.2,3.2,8.5c2.1,2.2,4.9,3.4,7.9,3.4h55.6v11.2c0,25.9,0.7,51.6,2.1,77.2
	c28.3-8.2,54.2-23.7,74.8-45.4c4.1-4.3,10.7-4.9,15.3-1.1l0.3,0.3c4.8,4,5.4,11.2,1.2,15.8c-24.7,26.1-55.9,44.3-90.1,53.2
	c1.9,26.6,4.4,53.1,7.7,79.3h78.3c49.3,0,89.6-40.3,89.6-89.6V121.6c0-49.3-40.3-89.6-89.6-89.6H254.7
	C222.7,109.6,204.7,192.7,202,277.7z M319.2,160.8c0-9.2,7.6-16.8,16.8-16.8s16.8,7.6,16.8,16.8v33.6c0,9.2-7.6,16.8-16.8,16.8
	s-16.8-7.6-16.8-16.8V160.8z M250.2,405.2c-8.7,1.2-17.4,2-26.2,2c-52.7,0-102.5-21.6-138.5-59.7c-4.3-4.5-3.6-11.8,1.2-15.8
	l0.3-0.3c4.5-3.8,11.2-3.2,15.3,1.1c31.7,33.3,75.5,52.2,121.7,52.2c8.4,0,16.6-0.8,24.7-2c-1.3-23.4-2.1-47-2.3-70.8h-33.3
	c-9.1,0-17.7-3.6-24-10.2c-6.5-6.7-9.8-15.5-9.5-24.8c2.7-84.6,20.1-167.4,51-245h-141C40.3,32,0,72.3,0,121.6v268.8
	C0,439.7,40.3,480,89.6,480h168C254.5,455.2,252.1,430.3,250.2,405.2z M95.2,160.8c0-9.3,7.5-16.8,16.8-16.8s16.8,7.5,16.8,16.8
	v33.6c0,9.3-7.5,16.8-16.8,16.8s-16.8-7.5-16.8-16.8V160.8z" />
</svg>
