<svg xmlns="http://www.w3.org/2000/svg" viewBox="0 0 496 512">
	<path d="M248,8C111.0331268,8,0,119.0331268,0,256c0,136.9661255,111.0331268,248,248,248s248-111.0338745,248-248
	C496,119.0331268,384.9668579,8,248,8z M419.6836853,156.8000031H352.181488
	c-4.8005981-29.9987106-12.0458069-57.9721222-22.2615662-81.3470001
	C367.6459351,92.6013947,399.0152588,121.2135773,419.6836853,156.8000031z M248,57.5999985
	c22.9351501,0,42.9133606,39.9556427,53.6377258,99.2000046H194.3622742
	C205.0866394,97.5556412,225.0648499,57.5999985,248,57.5999985z M55.998291,305.6000061
	C51.9000244,289.7382202,49.5999985,273.1514282,49.5999985,256s2.3000259-33.7382355,6.3982925-49.6000061h82.1469727
	c-1.1753693,16.4521027-1.7452698,33.099472-1.7452698,49.6000061s0.5699005,33.1478882,1.7452698,49.6000061H55.998291z
	 M76.3155518,355.2000122h67.5029602c4.8005981,29.9986877,12.0457916,57.9728699,22.2615662,81.3477478
	C128.3533173,419.399353,96.9832306,390.7871704,76.3155518,355.2000122z M143.818512,156.8000031H76.3163071
	c20.6684341-35.5864258,52.0377731-64.1986084,89.7637711-81.3470001
	C155.8643036,98.8278809,148.6191101,126.8012924,143.818512,156.8000031z M248,454.3999939
	c-22.9351501,0-42.9133606-39.9556274-53.6377258-99.1999817h107.2754517
	C290.9133606,414.4443665,270.9351501,454.3999939,248,454.3999939z M307.9678955,305.6000061h-119.935791
	C186.7522888,289.7192993,186,273.159729,186,256s0.7522888-33.7193146,2.0321045-49.6000061h119.935791
	C309.2477112,222.2806854,310,238.8402557,310,256S309.2477112,289.7192993,307.9678955,305.6000061z M329.9199219,436.54776
	c10.2157593-23.3748779,17.460968-51.3490601,22.2615662-81.3477478h67.5029602
	C399.0167847,390.7871704,367.6466675,419.399353,329.9199219,436.54776z M357.8547363,305.6000061
	c1.175354-16.4521179,1.7452698-33.0994568,1.7452698-49.6000061s-0.5699158-33.1479034-1.7452698-49.6000061h82.1469727
	c4.0982666,15.8617706,6.3982849,32.4485931,6.3982849,49.6000061s-2.3000183,33.7382202-6.3982849,49.6000061H357.8547363z" />
</svg>
