<svg xmlns="http://www.w3.org/2000/svg" viewBox="0 0 512 512">
	<path d="M512,337.5c0,19.2-15.7,34.9-34.9,34.9h-43.8l39.1,67.7c9.6,16.6,3.9,38.1-12.8,47.7c-16.6,9.6-38.1,3.9-47.7-12.8
	L291.5,266.5c-20.6-35.7-13-81.1,18.2-108.1L393,302.5h84.1C496.3,302.5,512,318.3,512,337.5z M320,24.2L320,24.2
	c-16.6-9.6-38.1-3.9-47.7,12.8L256,65.3L239.7,37c-9.6-16.6-31.1-22.4-47.7-12.8v0c-16.6,9.6-22.4,31.1-12.8,47.7l36.5,63.2
	L119,302.5H34.9C15.7,302.5,0,318.3,0,337.5c0,19.2,15.7,34.9,34.9,34.9h279.3c11.6-34.9-11.6-69.8-40.3-69.8h-74.3L332.8,71.9
	C342.4,55.3,336.6,33.8,320,24.2z M65.3,395.6l-25.7,44.5c-9.6,16.6-3.9,38.1,12.8,47.7l0,0c16.6,9.6,38.1,3.9,47.7-12.8l35-60.7
	C128,395.6,93.1,384,65.3,395.6z" />
</svg>
