<svg xmlns="http://www.w3.org/2000/svg" viewBox="0 0 640 512">
	<path d="M448.526001,72.8756866l-6.8797913,53.1183395l64.8979492,19.1594009l0.8399658,57.2982178l59.4781189,1.1399689
	l-1.4599609,60.098114l57.8182373-3.7598877C623.3204956,239.730484,624.5805054,125.4540558,640,72.8556976L448.526001,72.8756866z
	 M302.8105469,422.3447876c1.4599304-5.619812,0-24.0592346,0-30.5190735l-1.2599487-38.9587708
	c-53.9583282-2.2999268-112.0765228,8.5397339-112.0765228,58.2181702c0,10.8396606,4.5798645,20.5193481,11.3596497,28.019104
	h88.3372345c6.65979-3.7598877,11.5596313-8.9597168,13.6395874-16.77948V422.3447876z M543.743042,284.4291077
	l1.3599243-59.8981323l-58.7581482-1.1399689l-0.9399719-64.5779877l-67.3978882-23.0192871l9.0596924-62.9180298H175.6145172
	C73.7377014,72.8757019,0,159.6529846,0,254.6500244v184.4742432h109.7965698
	c-0.7199783-6.65979-0.9399719-13.4395752-0.6199875-20.0993347
	c3.959877-97.8169556,111.9765091-114.5764465,193.1139832-112.1764832v-28.1191406
	c-1.3599548-22.6992798-19.7993774-42.8186493-73.1177216-42.8186493c-35.5188904,0-77.6975861,4.5798492-104.9967194,14.479538
	l7.1797791-63.6380157c26.1391907-7.2997589,55.5182648-14.479538,118.7563019-14.479538
	c121.976181,0,135.4157562,54.0583038,134.4757843,116.8763428l-0.6199951,149.9953308h66.1379395v-0.1000061l2.4999084,0.1000061
	c88.1172485,0,160.6149902-71.777771,169.6746826-157.815094L543.743042,284.4291077z" />
</svg>
