<svg xmlns="http://www.w3.org/2000/svg" width="27" height="30"><g fill="#000" fill-rule="evenodd"><mask id="a"><path d="M26.667 28.605V30H0v-1.395h26.667zm-1.053-2.093v1.744H1.053v-1.744h24.561zM3.624 7.674l.293.148.147 2.352.147 3.822v3.677l-.147 4.582-.024 3.087-.415.123H2.16l-.44-.123-.17-3.087-.146-4.558v-3.676l.146-3.847.134-2.365.306-.135h1.635zm21.053 0l.294.148.146 2.352.146 3.822v3.677l-.146 4.582-.024 3.087-.416.123h-1.464l-.44-.123-.17-3.087-.147-4.558v-3.676l.146-3.847.135-2.365.305-.135h1.635zm-14.737 0l.293.148.147 2.352.146 3.822v3.677l-.146 4.582-.024 3.087-.416.123H8.476l-.44-.123-.17-3.087-.147-4.558v-3.676l.147-3.847L8 7.809l.305-.135H9.94zm8.07 0l.293.148.147 2.352.146 3.822v3.677l-.146 4.582-.024 3.087-.415.123h-1.465l-.44-.123-.17-3.087-.147-4.558v-3.676l.147-3.847.134-2.365.305-.135h1.636zm7.604-3.14v2.443H1.053V4.535h24.561zM13.081 0l12.884 2.933-.517.904H.772L0 3.104 13.08 0z"/></mask><path d="M26.667 28.605V30H0v-1.395h26.667zm-1.053-2.093v1.744H1.053v-1.744h24.561zM3.624 7.674l.293.148.147 2.352.147 3.822v3.677l-.147 4.582-.024 3.087-.415.123H2.16l-.44-.123-.17-3.087-.146-4.558v-3.676l.146-3.847.134-2.365.306-.135h1.635zm21.053 0l.294.148.146 2.352.146 3.822v3.677l-.146 4.582-.024 3.087-.416.123h-1.464l-.44-.123-.17-3.087-.147-4.558v-3.676l.146-3.847.135-2.365.305-.135h1.635zm-14.737 0l.293.148.147 2.352.146 3.822v3.677l-.146 4.582-.024 3.087-.416.123H8.476l-.44-.123-.17-3.087-.147-4.558v-3.676l.147-3.847L8 7.809l.305-.135H9.94zm8.07 0l.293.148.147 2.352.146 3.822v3.677l-.146 4.582-.024 3.087-.415.123h-1.465l-.44-.123-.17-3.087-.147-4.558v-3.676l.147-3.847.134-2.365.305-.135h1.636zm7.604-3.14v2.443H1.053V4.535h24.561zM13.081 0l12.884 2.933-.517.904H.772L0 3.104 13.08 0z"/></g></svg>
