<svg xmlns="http://www.w3.org/2000/svg" viewBox="0 0 48 48"><defs/><path d="M0 24v24h48V0H0zm31.465-14c5.043 1.867 8.137 5.441 8.883 10.293 1.332 8.719-7.094 15.492-17.602 14.133-1.437-.188-3.332-.586-4.21-.852-.884-.265-1.684-.508-1.79-.508-.133 0-.21 1.172-.21 2.586v2.614l.796.453c.535.293.746.59.64.855-.238.64-6.37.64-6.613 0-.105-.265.106-.562.641-.855l.8-.453V26.852c0-12.72.106-12.024-1.76-10-1.575 1.707-1.946 2.347-1.813 3.12.105.454 0 .856-.239 1.04-.32.297-.59.054-1.523-1.465L6.32 17.762l1.387-1.282c2-1.84 4.453-3.52 6.852-4.718 4.32-2.137 6.828-2.723 11.441-2.59 3.012.082 3.734.187 5.465.828zm0 0"/><path d="M22.426 11.227c-1.707.32-3.735 1.011-4.88 1.652l-1.01.562v17.2l.796.425c1.121.586 3.79 1.149 6.27 1.36 3.863.293 7.386-.961 9.597-3.414 2.989-3.305 3.547-8.078 1.442-12.399-2.055-4.238-6.989-6.425-12.215-5.386zm0 0"/></svg>