<svg xmlns="http://www.w3.org/2000/svg" viewBox="0 0 512 512">
	<path d="M445.3,127.6c-0.1-1.9-1.9-3.4-4-3.4l-40.8-5.9c-0.4-0.1-0.8-0.1-1.2-0.2c-8.2,0-27.6-0.1-56.8-0.1
	c-3.5-26.6-13.5-70.9-32.6-96.6C299.4,7.1,287.1-0.1,273.4,0c-8.7,0-16.6,2.7-23.5,8c-7.4-4.3-15-6.1-23-5.3
	c-38.4,3.9-50.4,60.4-52.9,115.5c-33.7,0.2-67.4,0.6-101.1,1.2c-2.5,0-4.4,1.8-4.6,4c-0.9,15.4-4.5,76-9.5,169.1
	c-5.3,98.4-8.4,152.2-9.1,166.4c-0.1,2,1.5,3.8,3.7,4.1l162.4,24.6l160.5,24.3c1.3,0.2,2.5-0.1,3.7-0.8v0l79.3-50.7
	c2.2-1.4,3.3-3.5,3.2-6.1L445.3,127.6L445.3,127.6z M273.5,15.4c7.1,0,13.8,3.4,20.2,10.4c19.5,21.3,29.6,66.7,33.3,92.2l-24.4,0
	c-5.5-34-19.1-77.2-40.2-99.8C265.8,16.5,269.5,15.5,273.5,15.4L273.5,15.4z M250.9,28.5c18.4,19,30.9,58.4,36.2,89.5
	c-15.5,0-32.5,0-50.8,0h-8.7C229.3,89.5,235.4,49,250.9,28.5L250.9,28.5z M181.3,333.6l-44,15.8c-7.8,2.8-8.9,6.7-2.7,8.8
	c6.4,2.2,17.7,1.6,25.5-1.3l21.1-7.6v22.2c-1.4,0.2-2.9,0.5-4.3,0.7c-21.1,3.5-43.5,2.1-65.7-5.3c-20.6-5.8-24.1-17.9-14.7-24.9
	c8.7-6.4,23.5-11.3,23.5-11.3l61.2-21.8V333.6z M228.5,18c3.4-0.4,6.8,0.2,10.1,1.5c-19.2,26.2-24.8,72.5-26.4,98.4
	c-7.9,0-15.5,0-22.9,0.1C192.2,56.4,206.1,20.3,228.5,18L228.5,18z M232.3,238.8v158.1l-42.7-13.5V194.8
	c18.2,3.3,44.6,11.4,58.8,16.1c36.1,12.4,48.3,27.9,48.3,62.6c0,33.9-20.9,46.8-47.5,33.9v-63.1c0-7.4-1.4-14.2-8.3-16.2
	C235.6,226.4,232.3,231.3,232.3,238.8L232.3,238.8z M351.3,349.5c-5.2,6.4-17.7,11.1-17.7,11.1L240.4,394v-24.7l68.6-24.4
	c7.8-2.9,8.9-6.8,2.7-8.8c-6.4-2.1-17.7-1.5-25.6,1.3l-45.6,16.1v-25.7l2.6-0.9c0,0,13.2-4.7,31.8-6.7c18.5-2,41.3,0.3,59.2,7
	C354.1,333.7,356.4,343,351.3,349.5L351.3,349.5z" />
</svg>
